<?xml version="1.0" encoding="utf-8"?>
<!-- Generator: Adobe Illustrator 19.0.0, SVG Export Plug-In . SVG Version: 6.00 Build 0)  -->
<svg version="1.1" xmlns="http://www.w3.org/2000/svg" xmlns:xlink="http://www.w3.org/1999/xlink" x="0px" y="0px"
	 viewBox="0 0 494.36 523.44" style="enable-background:new 0 0 494.36 523.44;" xml:space="preserve">
<style type="text/css">
	.st0{display:none;}
	.st1{fill:none;stroke:#000000;stroke-width:8;stroke-miterlimit:10;}
	.st2{font-family:'Montserrat-SemiBold';}
	.st3{font-size:54.8792px;}
	.st4{fill:#FFFFFF;stroke:#000000;stroke-miterlimit:10;}
	.st5{font-family:'Montserrat-Regular';}
	.st6{font-size:29px;}
	.st7{font-size:23px;}
	.st8{font-size:26px;}
</style>
<g id="Layer_1" class="st0">
	
		<image style="display:inline;overflow:visible;" width="158" height="176" xlink:href="C:\Users\chunesh\Downloads\acadamic-circle.png"  transform="matrix(1 0 0 1 170.5924 175.6609)">
	</image>
</g>
<g id="Layer_2">
	<circle class="st1" cx="244.88" cy="265.1" r="201.1"/>
	<text transform="matrix(1 0 0 1 135.6998 248.326)"><tspan x="0" y="0" class="st2 st3">Current</tspan><tspan x="-35.4" y="65.86" class="st2 st3">Education</tspan></text>
	<circle class="st4" cx="430.86" cy="167.96" r="63.5"/>
	<text transform="matrix(1 0 0 1 381.8791 159.0867)"><tspan x="0" y="0" class="st5 st6">School</tspan><tspan x="-5.8" y="34.8" class="st5 st6">College</tspan></text>
	<circle class="st4" cx="430.36" cy="373.8" r="63.5"/>
	<text transform="matrix(1 0 0 1 379.6828 364.9261)"><tspan x="0" y="0" class="st5 st6">Tuition</tspan><tspan x="-2.23" y="34.8" class="st5 st6">Classes</tspan></text>
	<circle class="st4" cx="244.88" cy="459.44" r="63.5"/>
	<text transform="matrix(1 0 0 1 198.3416 452.4048)"><tspan x="0" y="0" class="st5 st7">Mug-up</tspan><tspan x="-5.78" y="27.6" class="st5 st7">Tack-ups</tspan></text>
	<circle class="st4" cx="64" cy="375.3" r="63.5"/>
	<text transform="matrix(1 0 0 1 33.9419 366.4261)"><tspan x="0" y="0" class="st5 st6">Test</tspan><tspan x="-11.32" y="34.8" class="st5 st6">Exam</tspan></text>
	<circle class="st4" cx="63.5" cy="168.09" r="63.5"/>
	<text transform="matrix(1 0 0 1 30.3766 144.5304)"><tspan x="0" y="0" class="st5 st8">Pass </tspan><tspan x="-22.06" y="31.2" class="st5 st8">but NOT</tspan><tspan x="-8.02" y="62.4" class="st5 st8">happy</tspan></text>
	<circle class="st4" cx="249.59" cy="64" r="63.5"/>
	<text transform="matrix(1 0 0 1 193.2608 72.5261)" class="st5 st6">Parents</text>
</g>
</svg>
