<?xml version="1.0" encoding="utf-8"?>
<!-- Generator: Adobe Illustrator 19.0.0, SVG Export Plug-In . SVG Version: 6.00 Build 0)  -->
<svg version="1.1" xmlns="http://www.w3.org/2000/svg" xmlns:xlink="http://www.w3.org/1999/xlink" x="0px" y="0px"
	 viewBox="0 0 494.36 523.44" style="enable-background:new 0 0 494.36 523.44;" xml:space="preserve">
<style type="text/css">
	.st0{display:none;}
	.st1{fill:none;stroke:#000000;stroke-width:8;stroke-miterlimit:10;}
	.st2{font-family:'Montserrat-SemiBold';}
	.st3{font-size:41px;}
	.st4{fill:#FFFFFF;stroke:#000000;stroke-miterlimit:10;}
	.st5{font-family:'Montserrat-Regular';}
	.st6{font-size:24px;}
	.st7{font-size:28px;}
	.st8{font-size:25px;}
	.st9{font-size:29px;}
	.st10{font-size:26px;}
</style>
<g id="Layer_1" class="st0">
	
		<image style="display:inline;overflow:visible;" width="158" height="176" xlink:href="C:\Users\chunesh\Downloads\acadamic-circle.png"  transform="matrix(1 0 0 1 170.5924 175.6609)">
	</image>
</g>
<g id="Layer_2">
	<circle class="st1" cx="249.38" cy="264.82" r="201.1"/>
	<text transform="matrix(1 0 0 1 125.5838 227.6076)"><tspan x="0" y="0" class="st2 st3">New Online</tspan><tspan x="-37.37" y="49.2" class="st2 st3">Education with</tspan><tspan x="-36.12" y="98.4" class="st2 st3">Personal touch</tspan></text>
	<circle class="st4" cx="430.86" cy="158.66" r="63.5"/>
	<text transform="matrix(1 0 0 1 367.3444 157.3897)"><tspan x="0" y="0" class="st5 st6">Animation</tspan><tspan x="29.92" y="33.6" class="st5 st7">class</tspan></text>
	<circle class="st4" cx="430.36" cy="384.69" r="63.5"/>
	<text transform="matrix(1 0 0 1 375.673 377.038)"><tspan x="0" y="0" class="st5 st8">Personal</tspan><tspan x="22.74" y="30" class="st5 st8">Class</tspan></text>
	<circle class="st4" cx="244.88" cy="460.36" r="63.5"/>
	<text transform="matrix(1 0 0 1 196.8143 451.487)"><tspan x="0" y="0" class="st5 st9">Digital</tspan><tspan x="8.74" y="34.8" class="st5 st9">Proof</tspan></text>
	<circle class="st4" cx="64" cy="385.3" r="63.5"/>
	<text transform="matrix(1 0 0 1 8.6255 376.4261)"><tspan x="0" y="0" class="st5 st9">Writing</tspan><tspan x="15.51" y="34.8" class="st5 st9">Q &amp; A</tspan></text>
	<circle class="st4" cx="63.5" cy="158.09" r="63.5"/>
	<text transform="matrix(1 0 0 1 31.8844 134.5304)"><tspan x="0" y="0" class="st5 st10">TEST</tspan><tspan x="-11.74" y="31.2" class="st5 st10">Online</tspan><tspan x="-11.75" y="62.4" class="st5 st10">Offline</tspan></text>
	<circle class="st4" cx="249.59" cy="64" r="63.5"/>
	<text transform="matrix(1 0 0 1 188.3018 72.5261)" class="st5 st9">Reading</text>
</g>
</svg>
